/* XPM */
static char *checkerboard[] = {
/* width height num_colors chars_per_pixel */
"32 32 2 1",
/* colors */
"A c #000000",
"B c #FFFFFF",
/* pixels */
"AAAAAAAAAAAAAAAABBBBBBBBBBBBBBBB",
"AAAAAAAAAAAAAAAABBBBBBBBBBBBBBBB",
"AAAAAAAAAAAAAAAABBBBBBBBBBBBBBBB",
"AAAAAAAAAAAAAAAABBBBBBBBBBBBBBBB",
"AAAAAAAAAAAAAAAABBBBBBBBBBBBBBBB",
"AAAAAAAAAAAAAAAABBBBBBBBBBBBBBBB",
"AAAAAAAAAAAAAAAABBBBBBBBBBBBBBBB",
"AAAAAAAAAAAAAAAABBBBBBBBBBBBBBBB",
"AAAAAAAAAAAAAAAABBBBBBBBBBBBBBBB",
"AAAAAAAAAAAAAAAABBBBBBBBBBBBBBBB",
"AAAAAAAAAAAAAAAABBBBBBBBBBBBBBBB",
"AAAAAAAAAAAAAAAABBBBBBBBBBBBBBBB",
"AAAAAAAAAAAAAAAABBBBBBBBBBBBBBBB",
"AAAAAAAAAAAAAAAABBBBBBBBBBBBBBBB",
"AAAAAAAAAAAAAAAABBBBBBBBBBBBBBBB",
"AAAAAAAAAAAAAAAABBBBBBBBBBBBBBBB",
"BBBBBBBBBBBBBBBBAAAAAAAAAAAAAAAA",
"BBBBBBBBBBBBBBBBAAAAAAAAAAAAAAAA",
"BBBBBBBBBBBBBBBBAAAAAAAAAAAAAAAA",
"BBBBBBBBBBBBBBBBAAAAAAAAAAAAAAAA",
"BBBBBBBBBBBBBBBBAAAAAAAAAAAAAAAA",
"BBBBBBBBBBBBBBBBAAAAAAAAAAAAAAAA",
"BBBBBBBBBBBBBBBBAAAAAAAAAAAAAAAA",
"BBBBBBBBBBBBBBBBAAAAAAAAAAAAAAAA",
"BBBBBBBBBBBBBBBBAAAAAAAAAAAAAAAA",
"BBBBBBBBBBBBBBBBAAAAAAAAAAAAAAAA",
"BBBBBBBBBBBBBBBBAAAAAAAAAAAAAAAA",
"BBBBBBBBBBBBBBBBAAAAAAAAAAAAAAAA",
"BBBBBBBBBBBBBBBBAAAAAAAAAAAAAAAA",
"BBBBBBBBBBBBBBBBAAAAAAAAAAAAAAAA",
"BBBBBBBBBBBBBBBBAAAAAAAAAAAAAAAA",
"BBBBBBBBBBBBBBBBAAAAAAAAAAAAAAAA"
};